<?xml version="1.0" encoding="UTF-8"?>
<svg xmlns="http://www.w3.org/2000/svg" viewBox="0 0 600 600" width="600" height="600">
  <defs>
    <linearGradient id="goldGrad" x1="0" y1="0" x2="1" y2="1">
      <stop offset="0%" stop-color="#daa830"/>
      <stop offset="50%" stop-color="#c8922a"/>
      <stop offset="100%" stop-color="#a87818"/>
    </linearGradient>
  </defs>
  <!-- Wreath -->
  <circle cx="300" cy="248.39999999999998" r="260" fill="none" stroke="#2d5a27" stroke-width="7"/>
  <circle cx="300" cy="248.39999999999998" r="228" fill="none" stroke="#2d5a27" stroke-width="5"/>
  <path d="M300.0,4.4 L307.7,4.0 L315.4,3.9 L323.1,4.1 L330.8,4.8 L338.4,6.0 L345.9,7.6 L353.4,9.6 L360.7,11.9 L368.0,14.4 L375.1,17.2 L382.2,20.0 L389.3,22.9 L396.3,25.8 L403.4,28.8 L410.4,31.8 L417.4,34.9 L424.3,38.2 L431.1,41.8 L437.8,45.6 L444.3,49.8 L450.5,54.4 L456.4,59.3 L462.0,64.6 L467.4,70.1 L472.5,75.9 L477.5,81.7 L482.3,87.7 L487.0,93.7 L491.6,99.8 L496.2,105.8 L500.9,111.9 L505.4,118.0 L509.9,124.3 L514.1,130.7 L518.2,137.2 L521.9,144.0 L525.3,150.9 L528.2,158.0 L530.8,165.3 L532.9,172.7 L534.7,180.2 L536.2,187.8 L537.4,195.3 L538.5,202.9 L539.6,210.5 L540.6,218.0 L541.6,225.6 L542.5,233.1 L543.3,240.8 L544.0,248.4 L544.4,256.1 L544.5,263.8 L544.3,271.5 L543.6,279.2 L542.4,286.8 L540.8,294.3 L538.8,301.8 L536.5,309.1 L534.0,316.4 L531.2,323.5 L528.4,330.6 L525.5,337.7 L522.6,344.7 L519.6,351.8 L516.6,358.8 L513.5,365.8 L510.2,372.7 L506.6,379.5 L502.8,386.2 L498.6,392.7 L494.0,398.9 L489.1,404.8 L483.8,410.4 L478.3,415.8 L472.5,420.9 L466.7,425.9 L460.7,430.7 L454.7,435.4 L448.6,440.0 L442.6,444.6 L436.5,449.3 L430.4,453.8 L424.1,458.3 L417.7,462.5 L411.2,466.6 L404.4,470.3 L397.5,473.7 L390.4,476.6 L383.1,479.2 L375.7,481.3 L368.2,483.1 L360.6,484.6 L353.1,485.8 L345.5,486.9 L337.9,488.0 L330.4,489.0 L322.8,490.0 L315.3,490.9 L307.6,491.7 L300.0,492.4 L292.3,492.8 L284.6,492.9 L276.9,492.7 L269.2,492.0 L261.6,490.8 L254.1,489.2 L246.6,487.2 L239.3,484.9 L232.0,482.4 L224.9,479.6 L217.8,476.8 L210.7,473.9 L203.7,471.0 L196.6,468.0 L189.6,465.0 L182.6,461.9 L175.7,458.6 L168.9,455.0 L162.2,451.2 L155.7,447.0 L149.5,442.4 L143.6,437.5 L138.0,432.2 L132.6,426.7 L127.5,420.9 L122.5,415.1 L117.7,409.1 L113.0,403.1 L108.4,397.0 L103.8,391.0 L99.1,384.9 L94.6,378.8 L90.1,372.5 L85.9,366.1 L81.8,359.6 L78.1,352.8 L74.7,345.9 L71.8,338.8 L69.2,331.5 L67.1,324.1 L65.3,316.6 L63.8,309.0 L62.6,301.5 L61.5,293.9 L60.4,286.3 L59.4,278.8 L58.4,271.2 L57.5,263.7 L56.7,256.0 L56.0,248.4 L55.6,240.7 L55.5,233.0 L55.7,225.3 L56.4,217.6 L57.6,210.0 L59.2,202.5 L61.2,195.0 L63.5,187.7 L66.0,180.4 L68.8,173.3 L71.6,166.2 L74.5,159.1 L77.4,152.1 L80.4,145.0 L83.4,138.0 L86.5,131.0 L89.8,124.1 L93.4,117.3 L97.2,110.6 L101.4,104.1 L106.0,97.9 L110.9,92.0 L116.2,86.4 L121.7,81.0 L127.5,75.9 L133.3,70.9 L139.3,66.1 L145.3,61.4 L151.4,56.8 L157.4,52.2 L163.5,47.5 L169.6,43.0 L175.9,38.5 L182.3,34.3 L188.8,30.2 L195.6,26.5 L202.5,23.1 L209.6,20.2 L216.9,17.6 L224.3,15.5 L231.8,13.7 L239.4,12.2 L246.9,11.0 L254.5,9.9 L262.1,8.8 L269.6,7.8 L277.2,6.8 L284.7,5.9 L292.4,5.1 L300.0,4.4" fill="none" stroke="#2d5a27" stroke-width="3"/>
  <!-- Leaves -->
  <path d="M300.0,-1.6 Q295.0,-8.0 293.0,-16.0 Q301.5,-8.0 300.0,-1.6" fill="#2d5a27"/><line x1="300.0" y1="-1.6" x2="293.0" y2="-16.0" stroke="#1e4d1a" stroke-width="0.6" opacity="0.5"/><path d="M300.0,-1.6 Q305.0,-8.0 307.0,-16.0 Q298.5,-8.0 300.0,-1.6" fill="#2d5a27"/><line x1="300.0" y1="-1.6" x2="307.0" y2="-16.0" stroke="#1e4d1a" stroke-width="0.6" opacity="0.5"/><path d="M300.0,6.4 Q296.0,1.6 292.3,-2.8 Q301.0,1.6 300.0,6.4" fill="#2d5a27"/><path d="M300.0,6.4 Q304.0,1.6 307.7,-2.8 Q299.0,1.6 300.0,6.4" fill="#2d5a27"/><path d="M355.6,4.7 Q352.2,-2.7 352.1,-10.9 Q358.5,-1.2 355.6,4.7" fill="#2d5a27"/><line x1="355.6" y1="4.7" x2="352.1" y2="-10.9" stroke="#1e4d1a" stroke-width="0.6" opacity="0.5"/><path d="M355.6,4.7 Q361.9,-0.5 365.6,-7.8 Q355.6,-1.9 355.6,4.7" fill="#2d5a27"/><line x1="355.6" y1="4.7" x2="365.6" y2="-7.8" stroke="#1e4d1a" stroke-width="0.6" opacity="0.5"/><path d="M353.9,12.5 Q351.0,6.9 348.4,1.8 Q355.9,8.0 353.9,12.5" fill="#2d5a27"/><path d="M353.9,12.5 Q358.8,8.7 363.4,5.2 Q353.9,7.6 353.9,12.5" fill="#2d5a27"/><path d="M408.5,23.2 Q406.7,15.2 408.5,7.2 Q412.6,18.0 408.5,23.2" fill="#2d5a27"/><line x1="408.5" y1="23.2" x2="408.5" y2="7.2" stroke="#1e4d1a" stroke-width="0.6" opacity="0.5"/><path d="M408.5,23.2 Q415.8,19.6 421.0,13.2 Q409.9,16.7 408.5,23.2" fill="#2d5a27"/><line x1="408.5" y1="23.2" x2="421.0" y2="13.2" stroke="#1e4d1a" stroke-width="0.6" opacity="0.5"/><path d="M405.0,30.4 Q403.5,24.3 402.0,18.7 Q408.0,26.5 405.0,30.4" fill="#2d5a27"/><path d="M405.0,30.4 Q410.7,27.8 415.9,25.5 Q406.2,25.6 405.0,30.4" fill="#2d5a27"/><path d="M455.9,52.9 Q456.0,44.8 459.4,37.3 Q461.0,48.9 455.9,52.9" fill="#2d5a27"/><line x1="455.9" y1="52.9" x2="459.4" y2="37.3" stroke="#1e4d1a" stroke-width="0.6" opacity="0.5"/><path d="M455.9,52.9 Q463.8,51.1 470.3,46.0 Q458.7,47.0 455.9,52.9" fill="#2d5a27"/><line x1="455.9" y1="52.9" x2="470.3" y2="46.0" stroke="#1e4d1a" stroke-width="0.6" opacity="0.5"/><path d="M450.9,59.2 Q450.7,53.0 450.6,47.2 Q454.7,56.1 450.9,59.2" fill="#2d5a27"/><path d="M450.9,59.2 Q457.0,57.9 462.7,56.8 Q453.1,54.8 450.9,59.2" fill="#2d5a27"/><path d="M495.5,92.5 Q497.3,84.6 502.4,78.1 Q501.4,89.7 495.5,92.5" fill="#2d5a27"/><line x1="495.5" y1="92.5" x2="502.4" y2="78.1" stroke="#1e4d1a" stroke-width="0.6" opacity="0.5"/><path d="M495.5,92.5 Q503.6,92.4 511.1,89.0 Q499.5,87.4 495.5,92.5" fill="#2d5a27"/><line x1="495.5" y1="92.5" x2="511.1" y2="89.0" stroke="#1e4d1a" stroke-width="0.6" opacity="0.5"/><path d="M489.2,97.5 Q490.5,91.4 491.6,85.7 Q493.6,95.3 489.2,97.5" fill="#2d5a27"/><path d="M489.2,97.5 Q495.4,97.7 501.2,97.8 Q492.3,93.7 489.2,97.5" fill="#2d5a27"/><path d="M525.2,139.9 Q528.8,132.6 535.2,127.4 Q531.7,138.5 525.2,139.9" fill="#2d5a27"/><line x1="525.2" y1="139.9" x2="535.2" y2="127.4" stroke="#1e4d1a" stroke-width="0.6" opacity="0.5"/><path d="M525.2,139.9 Q533.2,141.7 541.2,139.9 Q530.4,135.8 525.2,139.9" fill="#2d5a27"/><line x1="525.2" y1="139.9" x2="541.2" y2="139.9" stroke="#1e4d1a" stroke-width="0.6" opacity="0.5"/><path d="M518.0,143.4 Q520.6,137.7 522.9,132.5 Q522.8,142.2 518.0,143.4" fill="#2d5a27"/><path d="M518.0,143.4 Q524.1,144.9 529.7,146.4 Q521.9,140.4 518.0,143.4" fill="#2d5a27"/><path d="M543.7,192.8 Q548.9,186.5 556.2,182.8 Q550.3,192.8 543.7,192.8" fill="#2d5a27"/><line x1="543.7" y1="192.8" x2="556.2" y2="182.8" stroke="#1e4d1a" stroke-width="0.6" opacity="0.5"/><path d="M543.7,192.8 Q551.1,196.2 559.3,196.3 Q549.6,189.9 543.7,192.8" fill="#2d5a27"/><line x1="543.7" y1="192.8" x2="559.3" y2="196.3" stroke="#1e4d1a" stroke-width="0.6" opacity="0.5"/><path d="M535.9,194.5 Q539.7,189.6 543.2,185.0 Q540.8,194.5 535.9,194.5" fill="#2d5a27"/><path d="M535.9,194.5 Q541.5,197.4 546.6,200.0 Q540.4,192.5 535.9,194.5" fill="#2d5a27"/><path d="M550.0,248.4 Q556.4,243.4 564.4,241.4 Q556.4,249.9 550.0,248.4" fill="#2d5a27"/><line x1="550.0" y1="248.4" x2="564.4" y2="241.4" stroke="#1e4d1a" stroke-width="0.6" opacity="0.5"/><path d="M550.0,248.4 Q556.4,253.4 564.4,255.4 Q556.4,246.9 550.0,248.4" fill="#2d5a27"/><line x1="550.0" y1="248.4" x2="564.4" y2="255.4" stroke="#1e4d1a" stroke-width="0.6" opacity="0.5"/><path d="M542.0,248.4 Q546.8,244.4 551.2,240.7 Q546.8,249.4 542.0,248.4" fill="#2d5a27"/><path d="M542.0,248.4 Q546.8,252.4 551.2,256.1 Q546.8,247.4 542.0,248.4" fill="#2d5a27"/><path d="M543.7,304.0 Q551.1,300.6 559.3,300.5 Q549.6,306.9 543.7,304.0" fill="#2d5a27"/><line x1="543.7" y1="304.0" x2="559.3" y2="300.5" stroke="#1e4d1a" stroke-width="0.6" opacity="0.5"/><path d="M543.7,304.0 Q548.9,310.3 556.2,314.0 Q550.3,304.0 543.7,304.0" fill="#2d5a27"/><line x1="543.7" y1="304.0" x2="556.2" y2="314.0" stroke="#1e4d1a" stroke-width="0.6" opacity="0.5"/><path d="M535.9,302.3 Q541.5,299.4 546.6,296.8 Q540.4,304.3 535.9,302.3" fill="#2d5a27"/><path d="M535.9,302.3 Q539.7,307.2 543.2,311.8 Q540.8,302.3 535.9,302.3" fill="#2d5a27"/><path d="M525.2,356.9 Q533.2,355.1 541.2,356.9 Q530.4,361.0 525.2,356.9" fill="#2d5a27"/><line x1="525.2" y1="356.9" x2="541.2" y2="356.9" stroke="#1e4d1a" stroke-width="0.6" opacity="0.5"/><path d="M525.2,356.9 Q528.8,364.2 535.2,369.4 Q531.7,358.3 525.2,356.9" fill="#2d5a27"/><line x1="525.2" y1="356.9" x2="535.2" y2="369.4" stroke="#1e4d1a" stroke-width="0.6" opacity="0.5"/><path d="M518.0,353.4 Q524.1,351.9 529.7,350.4 Q521.9,356.4 518.0,353.4" fill="#2d5a27"/><path d="M518.0,353.4 Q520.6,359.1 522.9,364.3 Q522.8,354.6 518.0,353.4" fill="#2d5a27"/><path d="M495.5,404.3 Q503.6,404.4 511.1,407.8 Q499.5,409.4 495.5,404.3" fill="#2d5a27"/><line x1="495.5" y1="404.3" x2="511.1" y2="407.8" stroke="#1e4d1a" stroke-width="0.6" opacity="0.5"/><path d="M495.5,404.3 Q497.3,412.2 502.4,418.7 Q501.4,407.1 495.5,404.3" fill="#2d5a27"/><line x1="495.5" y1="404.3" x2="502.4" y2="418.7" stroke="#1e4d1a" stroke-width="0.6" opacity="0.5"/><path d="M489.2,399.3 Q495.4,399.1 501.2,399.0 Q492.3,403.1 489.2,399.3" fill="#2d5a27"/><path d="M489.2,399.3 Q490.5,405.4 491.6,411.1 Q493.6,401.5 489.2,399.3" fill="#2d5a27"/><path d="M455.9,443.9 Q463.8,445.7 470.3,450.8 Q458.7,449.8 455.9,443.9" fill="#2d5a27"/><line x1="455.9" y1="443.9" x2="470.3" y2="450.8" stroke="#1e4d1a" stroke-width="0.6" opacity="0.5"/><path d="M455.9,443.9 Q456.0,452.0 459.4,459.5 Q461.0,447.9 455.9,443.9" fill="#2d5a27"/><line x1="455.9" y1="443.9" x2="459.4" y2="459.5" stroke="#1e4d1a" stroke-width="0.6" opacity="0.5"/><path d="M450.9,437.6 Q457.0,438.9 462.7,440.0 Q453.1,442.0 450.9,437.6" fill="#2d5a27"/><path d="M450.9,437.6 Q450.7,443.8 450.6,449.6 Q454.7,440.7 450.9,437.6" fill="#2d5a27"/><path d="M408.5,473.6 Q415.8,477.2 421.0,483.6 Q409.9,480.1 408.5,473.6" fill="#2d5a27"/><line x1="408.5" y1="473.6" x2="421.0" y2="483.6" stroke="#1e4d1a" stroke-width="0.6" opacity="0.5"/><path d="M408.5,473.6 Q406.7,481.6 408.5,489.6 Q412.6,478.8 408.5,473.6" fill="#2d5a27"/><line x1="408.5" y1="473.6" x2="408.5" y2="489.6" stroke="#1e4d1a" stroke-width="0.6" opacity="0.5"/><path d="M405.0,466.4 Q410.7,469.0 415.9,471.3 Q406.2,471.2 405.0,466.4" fill="#2d5a27"/><path d="M405.0,466.4 Q403.5,472.5 402.0,478.1 Q408.0,470.3 405.0,466.4" fill="#2d5a27"/><path d="M355.6,492.1 Q361.9,497.3 365.6,504.6 Q355.6,498.7 355.6,492.1" fill="#2d5a27"/><line x1="355.6" y1="492.1" x2="365.6" y2="504.6" stroke="#1e4d1a" stroke-width="0.6" opacity="0.5"/><path d="M355.6,492.1 Q352.2,499.5 352.1,507.7 Q358.5,498.0 355.6,492.1" fill="#2d5a27"/><line x1="355.6" y1="492.1" x2="352.1" y2="507.7" stroke="#1e4d1a" stroke-width="0.6" opacity="0.5"/><path d="M353.9,484.3 Q358.8,488.1 363.4,491.6 Q353.9,489.2 353.9,484.3" fill="#2d5a27"/><path d="M353.9,484.3 Q351.0,489.9 348.4,495.0 Q355.9,488.8 353.9,484.3" fill="#2d5a27"/><path d="M300.0,498.4 Q305.0,504.8 307.0,512.8 Q298.5,504.8 300.0,498.4" fill="#2d5a27"/><line x1="300.0" y1="498.4" x2="307.0" y2="512.8" stroke="#1e4d1a" stroke-width="0.6" opacity="0.5"/><path d="M300.0,498.4 Q295.0,504.8 293.0,512.8 Q301.5,504.8 300.0,498.4" fill="#2d5a27"/><line x1="300.0" y1="498.4" x2="293.0" y2="512.8" stroke="#1e4d1a" stroke-width="0.6" opacity="0.5"/><path d="M300.0,490.4 Q304.0,495.2 307.7,499.6 Q299.0,495.2 300.0,490.4" fill="#2d5a27"/><path d="M300.0,490.4 Q296.0,495.2 292.3,499.6 Q301.0,495.2 300.0,490.4" fill="#2d5a27"/><path d="M244.4,492.1 Q247.8,499.5 247.9,507.7 Q241.5,498.0 244.4,492.1" fill="#2d5a27"/><line x1="244.4" y1="492.1" x2="247.9" y2="507.7" stroke="#1e4d1a" stroke-width="0.6" opacity="0.5"/><path d="M244.4,492.1 Q238.1,497.3 234.4,504.6 Q244.4,498.7 244.4,492.1" fill="#2d5a27"/><line x1="244.4" y1="492.1" x2="234.4" y2="504.6" stroke="#1e4d1a" stroke-width="0.6" opacity="0.5"/><path d="M246.1,484.3 Q249.0,489.9 251.6,495.0 Q244.1,488.8 246.1,484.3" fill="#2d5a27"/><path d="M246.1,484.3 Q241.2,488.1 236.6,491.6 Q246.1,489.2 246.1,484.3" fill="#2d5a27"/><path d="M191.5,473.6 Q193.3,481.6 191.5,489.6 Q187.4,478.8 191.5,473.6" fill="#2d5a27"/><line x1="191.5" y1="473.6" x2="191.5" y2="489.6" stroke="#1e4d1a" stroke-width="0.6" opacity="0.5"/><path d="M191.5,473.6 Q184.2,477.2 179.0,483.6 Q190.1,480.1 191.5,473.6" fill="#2d5a27"/><line x1="191.5" y1="473.6" x2="179.0" y2="483.6" stroke="#1e4d1a" stroke-width="0.6" opacity="0.5"/><path d="M195.0,466.4 Q196.5,472.5 198.0,478.1 Q192.0,470.3 195.0,466.4" fill="#2d5a27"/><path d="M195.0,466.4 Q189.3,469.0 184.1,471.3 Q193.8,471.2 195.0,466.4" fill="#2d5a27"/><path d="M144.1,443.9 Q144.0,452.0 140.6,459.5 Q139.0,447.9 144.1,443.9" fill="#2d5a27"/><line x1="144.1" y1="443.9" x2="140.6" y2="459.5" stroke="#1e4d1a" stroke-width="0.6" opacity="0.5"/><path d="M144.1,443.9 Q136.2,445.7 129.7,450.8 Q141.3,449.8 144.1,443.9" fill="#2d5a27"/><line x1="144.1" y1="443.9" x2="129.7" y2="450.8" stroke="#1e4d1a" stroke-width="0.6" opacity="0.5"/><path d="M149.1,437.6 Q149.3,443.8 149.4,449.6 Q145.3,440.7 149.1,437.6" fill="#2d5a27"/><path d="M149.1,437.6 Q143.0,438.9 137.3,440.0 Q146.9,442.0 149.1,437.6" fill="#2d5a27"/><path d="M104.5,404.3 Q102.7,412.2 97.6,418.7 Q98.6,407.1 104.5,404.3" fill="#2d5a27"/><line x1="104.5" y1="404.3" x2="97.6" y2="418.7" stroke="#1e4d1a" stroke-width="0.6" opacity="0.5"/><path d="M104.5,404.3 Q96.4,404.4 88.9,407.8 Q100.5,409.4 104.5,404.3" fill="#2d5a27"/><line x1="104.5" y1="404.3" x2="88.9" y2="407.8" stroke="#1e4d1a" stroke-width="0.6" opacity="0.5"/><path d="M110.8,399.3 Q109.5,405.4 108.4,411.1 Q106.4,401.5 110.8,399.3" fill="#2d5a27"/><path d="M110.8,399.3 Q104.6,399.1 98.8,399.0 Q107.7,403.1 110.8,399.3" fill="#2d5a27"/><path d="M74.8,356.9 Q71.2,364.2 64.8,369.4 Q68.3,358.3 74.8,356.9" fill="#2d5a27"/><line x1="74.8" y1="356.9" x2="64.8" y2="369.4" stroke="#1e4d1a" stroke-width="0.6" opacity="0.5"/><path d="M74.8,356.9 Q66.8,355.1 58.8,356.9 Q69.6,361.0 74.8,356.9" fill="#2d5a27"/><line x1="74.8" y1="356.9" x2="58.8" y2="356.9" stroke="#1e4d1a" stroke-width="0.6" opacity="0.5"/><path d="M82.0,353.4 Q79.4,359.1 77.1,364.3 Q77.2,354.6 82.0,353.4" fill="#2d5a27"/><path d="M82.0,353.4 Q75.9,351.9 70.3,350.4 Q78.1,356.4 82.0,353.4" fill="#2d5a27"/><path d="M56.3,304.0 Q51.1,310.3 43.8,314.0 Q49.7,304.0 56.3,304.0" fill="#2d5a27"/><line x1="56.3" y1="304.0" x2="43.8" y2="314.0" stroke="#1e4d1a" stroke-width="0.6" opacity="0.5"/><path d="M56.3,304.0 Q48.9,300.6 40.7,300.5 Q50.4,306.9 56.3,304.0" fill="#2d5a27"/><line x1="56.3" y1="304.0" x2="40.7" y2="300.5" stroke="#1e4d1a" stroke-width="0.6" opacity="0.5"/><path d="M64.1,302.3 Q60.3,307.2 56.8,311.8 Q59.2,302.3 64.1,302.3" fill="#2d5a27"/><path d="M64.1,302.3 Q58.5,299.4 53.4,296.8 Q59.6,304.3 64.1,302.3" fill="#2d5a27"/><path d="M50.0,248.4 Q43.6,253.4 35.6,255.4 Q43.6,246.9 50.0,248.4" fill="#2d5a27"/><line x1="50.0" y1="248.4" x2="35.6" y2="255.4" stroke="#1e4d1a" stroke-width="0.6" opacity="0.5"/><path d="M50.0,248.4 Q43.6,243.4 35.6,241.4 Q43.6,249.9 50.0,248.4" fill="#2d5a27"/><line x1="50.0" y1="248.4" x2="35.6" y2="241.4" stroke="#1e4d1a" stroke-width="0.6" opacity="0.5"/><path d="M58.0,248.4 Q53.2,252.4 48.8,256.1 Q53.2,247.4 58.0,248.4" fill="#2d5a27"/><path d="M58.0,248.4 Q53.2,244.4 48.8,240.7 Q53.2,249.4 58.0,248.4" fill="#2d5a27"/><path d="M56.3,192.8 Q48.9,196.2 40.7,196.3 Q50.4,189.9 56.3,192.8" fill="#2d5a27"/><line x1="56.3" y1="192.8" x2="40.7" y2="196.3" stroke="#1e4d1a" stroke-width="0.6" opacity="0.5"/><path d="M56.3,192.8 Q51.1,186.5 43.8,182.8 Q49.7,192.8 56.3,192.8" fill="#2d5a27"/><line x1="56.3" y1="192.8" x2="43.8" y2="182.8" stroke="#1e4d1a" stroke-width="0.6" opacity="0.5"/><path d="M64.1,194.5 Q58.5,197.4 53.4,200.0 Q59.6,192.5 64.1,194.5" fill="#2d5a27"/><path d="M64.1,194.5 Q60.3,189.6 56.8,185.0 Q59.2,194.5 64.1,194.5" fill="#2d5a27"/><path d="M74.8,139.9 Q66.8,141.7 58.8,139.9 Q69.6,135.8 74.8,139.9" fill="#2d5a27"/><line x1="74.8" y1="139.9" x2="58.8" y2="139.9" stroke="#1e4d1a" stroke-width="0.6" opacity="0.5"/><path d="M74.8,139.9 Q71.2,132.6 64.8,127.4 Q68.3,138.5 74.8,139.9" fill="#2d5a27"/><line x1="74.8" y1="139.9" x2="64.8" y2="127.4" stroke="#1e4d1a" stroke-width="0.6" opacity="0.5"/><path d="M82.0,143.4 Q75.9,144.9 70.3,146.4 Q78.1,140.4 82.0,143.4" fill="#2d5a27"/><path d="M82.0,143.4 Q79.4,137.7 77.1,132.5 Q77.2,142.2 82.0,143.4" fill="#2d5a27"/><path d="M104.5,92.5 Q96.4,92.4 88.9,89.0 Q100.5,87.4 104.5,92.5" fill="#2d5a27"/><line x1="104.5" y1="92.5" x2="88.9" y2="89.0" stroke="#1e4d1a" stroke-width="0.6" opacity="0.5"/><path d="M104.5,92.5 Q102.7,84.6 97.6,78.1 Q98.6,89.7 104.5,92.5" fill="#2d5a27"/><line x1="104.5" y1="92.5" x2="97.6" y2="78.1" stroke="#1e4d1a" stroke-width="0.6" opacity="0.5"/><path d="M110.8,97.5 Q104.6,97.7 98.8,97.8 Q107.7,93.7 110.8,97.5" fill="#2d5a27"/><path d="M110.8,97.5 Q109.5,91.4 108.4,85.7 Q106.4,95.3 110.8,97.5" fill="#2d5a27"/><path d="M144.1,52.9 Q136.2,51.1 129.7,46.0 Q141.3,47.0 144.1,52.9" fill="#2d5a27"/><line x1="144.1" y1="52.9" x2="129.7" y2="46.0" stroke="#1e4d1a" stroke-width="0.6" opacity="0.5"/><path d="M144.1,52.9 Q144.0,44.8 140.6,37.3 Q139.0,48.9 144.1,52.9" fill="#2d5a27"/><line x1="144.1" y1="52.9" x2="140.6" y2="37.3" stroke="#1e4d1a" stroke-width="0.6" opacity="0.5"/><path d="M149.1,59.2 Q143.0,57.9 137.3,56.8 Q146.9,54.8 149.1,59.2" fill="#2d5a27"/><path d="M149.1,59.2 Q149.3,53.0 149.4,47.2 Q145.3,56.1 149.1,59.2" fill="#2d5a27"/><path d="M191.5,23.2 Q184.2,19.6 179.0,13.2 Q190.1,16.7 191.5,23.2" fill="#2d5a27"/><line x1="191.5" y1="23.2" x2="179.0" y2="13.2" stroke="#1e4d1a" stroke-width="0.6" opacity="0.5"/><path d="M191.5,23.2 Q193.3,15.2 191.5,7.2 Q187.4,18.0 191.5,23.2" fill="#2d5a27"/><line x1="191.5" y1="23.2" x2="191.5" y2="7.2" stroke="#1e4d1a" stroke-width="0.6" opacity="0.5"/><path d="M195.0,30.4 Q189.3,27.8 184.1,25.5 Q193.8,25.6 195.0,30.4" fill="#2d5a27"/><path d="M195.0,30.4 Q196.5,24.3 198.0,18.7 Q192.0,26.5 195.0,30.4" fill="#2d5a27"/><path d="M244.4,4.7 Q238.1,-0.5 234.4,-7.8 Q244.4,-1.9 244.4,4.7" fill="#2d5a27"/><line x1="244.4" y1="4.7" x2="234.4" y2="-7.8" stroke="#1e4d1a" stroke-width="0.6" opacity="0.5"/><path d="M244.4,4.7 Q247.8,-2.7 247.9,-10.9 Q241.5,-1.2 244.4,4.7" fill="#2d5a27"/><line x1="244.4" y1="4.7" x2="247.9" y2="-10.9" stroke="#1e4d1a" stroke-width="0.6" opacity="0.5"/><path d="M246.1,12.5 Q241.2,8.7 236.6,5.2 Q246.1,7.6 246.1,12.5" fill="#2d5a27"/><path d="M246.1,12.5 Q249.0,6.9 251.6,1.8 Q244.1,8.0 246.1,12.5" fill="#2d5a27"/><line x1="326.0" y1="17.9" x2="328.7" y2="-6.0" stroke="#3a6b34" stroke-width="1" opacity="0.4"/><line x1="376.6" y1="29.4" x2="384.6" y2="6.8" stroke="#3a6b34" stroke-width="1" opacity="0.4"/><line x1="423.4" y1="52.0" x2="436.2" y2="31.6" stroke="#3a6b34" stroke-width="1" opacity="0.4"/><line x1="464.0" y1="84.4" x2="481.0" y2="67.4" stroke="#3a6b34" stroke-width="1" opacity="0.4"/><line x1="496.4" y1="125.0" x2="516.8" y2="112.2" stroke="#3a6b34" stroke-width="1" opacity="0.4"/><line x1="519.0" y1="171.8" x2="541.6" y2="163.8" stroke="#3a6b34" stroke-width="1" opacity="0.4"/><line x1="530.5" y1="222.4" x2="554.4" y2="219.7" stroke="#3a6b34" stroke-width="1" opacity="0.4"/><line x1="530.5" y1="274.4" x2="554.4" y2="277.1" stroke="#3a6b34" stroke-width="1" opacity="0.4"/><line x1="519.0" y1="325.0" x2="541.6" y2="333.0" stroke="#3a6b34" stroke-width="1" opacity="0.4"/><line x1="496.4" y1="371.8" x2="516.8" y2="384.6" stroke="#3a6b34" stroke-width="1" opacity="0.4"/><line x1="464.0" y1="412.4" x2="481.0" y2="429.4" stroke="#3a6b34" stroke-width="1" opacity="0.4"/><line x1="423.4" y1="444.8" x2="436.2" y2="465.2" stroke="#3a6b34" stroke-width="1" opacity="0.4"/><line x1="376.6" y1="467.4" x2="384.6" y2="490.0" stroke="#3a6b34" stroke-width="1" opacity="0.4"/><line x1="326.0" y1="478.9" x2="328.7" y2="502.8" stroke="#3a6b34" stroke-width="1" opacity="0.4"/><line x1="274.0" y1="478.9" x2="271.3" y2="502.8" stroke="#3a6b34" stroke-width="1" opacity="0.4"/><line x1="223.4" y1="467.4" x2="215.4" y2="490.0" stroke="#3a6b34" stroke-width="1" opacity="0.4"/><line x1="176.6" y1="444.8" x2="163.8" y2="465.2" stroke="#3a6b34" stroke-width="1" opacity="0.4"/><line x1="136.0" y1="412.4" x2="119.0" y2="429.4" stroke="#3a6b34" stroke-width="1" opacity="0.4"/><line x1="103.6" y1="371.8" x2="83.2" y2="384.6" stroke="#3a6b34" stroke-width="1" opacity="0.4"/><line x1="81.0" y1="325.0" x2="58.4" y2="333.0" stroke="#3a6b34" stroke-width="1" opacity="0.4"/><line x1="69.5" y1="274.4" x2="45.6" y2="277.1" stroke="#3a6b34" stroke-width="1" opacity="0.4"/><line x1="69.5" y1="222.4" x2="45.6" y2="219.7" stroke="#3a6b34" stroke-width="1" opacity="0.4"/><line x1="81.0" y1="171.8" x2="58.4" y2="163.8" stroke="#3a6b34" stroke-width="1" opacity="0.4"/><line x1="103.6" y1="125.0" x2="83.2" y2="112.2" stroke="#3a6b34" stroke-width="1" opacity="0.4"/><line x1="136.0" y1="84.4" x2="119.0" y2="67.4" stroke="#3a6b34" stroke-width="1" opacity="0.4"/><line x1="176.6" y1="52.0" x2="163.8" y2="31.6" stroke="#3a6b34" stroke-width="1" opacity="0.4"/><line x1="223.4" y1="29.4" x2="215.4" y2="6.8" stroke="#3a6b34" stroke-width="1" opacity="0.4"/><line x1="274.0" y1="17.9" x2="271.3" y2="-6.0" stroke="#3a6b34" stroke-width="1" opacity="0.4"/>
  <!-- House Shield -->
  <path d="M300,38.39999999999998 L460,156.39999999999998 L460,378.4 L140,378.4 L140,156.39999999999998 Z" fill="#1e4d1a" stroke="#2d5a27" stroke-width="5"/>
  <path d="M300,60.39999999999998 L442,166.39999999999998 L442,360.4 L158,360.4 L158,166.39999999999998 Z" fill="none" stroke="#2d5a27" stroke-width="2.5"/>
  <!-- Mjolnir -->
  <g>
    <rect x="278" y="58.39999999999998" width="44" height="26" rx="5" fill="url(#goldGrad)" stroke="#8a6a15" stroke-width="2.5"/>
    <path d="M300,51.39999999999998 L310,71.39999999999998 L300,78.39999999999998 L290,71.39999999999998 Z" fill="#daa830" stroke="#8a6a15" stroke-width="2"/>
    <rect x="286" y="83.39999999999998" width="28" height="140" rx="4" fill="url(#goldGrad)" stroke="#8a6a15" stroke-width="2.5"/>
    <!-- Celtic Knotwork -->
    <path d="M292,93.39999999999998 C292,101.21249999999998 308,101.21249999999998 308,109.02499999999998" stroke="#8a6a15" stroke-width="3.5" fill="none" stroke-linecap="round"/><path d="M308,93.39999999999998 C308,101.21249999999998 292,101.21249999999998 292,109.02499999999998" stroke="#8a6a15" stroke-width="3.5" fill="none" stroke-linecap="round"/><path d="M308,109.02499999999998 C308,116.83749999999998 292,116.83749999999998 292,124.64999999999998" stroke="#8a6a15" stroke-width="3.5" fill="none" stroke-linecap="round"/><path d="M292,109.02499999999998 C292,116.83749999999998 308,116.83749999999998 308,124.64999999999998" stroke="#8a6a15" stroke-width="3.5" fill="none" stroke-linecap="round"/><path d="M292,124.64999999999998 C292,132.46249999999998 308,132.46249999999998 308,140.27499999999998" stroke="#8a6a15" stroke-width="3.5" fill="none" stroke-linecap="round"/><path d="M308,124.64999999999998 C308,132.46249999999998 292,132.46249999999998 292,140.27499999999998" stroke="#8a6a15" stroke-width="3.5" fill="none" stroke-linecap="round"/><path d="M308,140.27499999999998 C308,148.08749999999998 292,148.08749999999998 292,155.89999999999998" stroke="#8a6a15" stroke-width="3.5" fill="none" stroke-linecap="round"/><path d="M292,140.27499999999998 C292,148.08749999999998 308,148.08749999999998 308,155.89999999999998" stroke="#8a6a15" stroke-width="3.5" fill="none" stroke-linecap="round"/><path d="M292,155.89999999999998 C292,163.71249999999998 308,163.71249999999998 308,171.52499999999998" stroke="#8a6a15" stroke-width="3.5" fill="none" stroke-linecap="round"/><path d="M308,155.89999999999998 C308,163.71249999999998 292,163.71249999999998 292,171.52499999999998" stroke="#8a6a15" stroke-width="3.5" fill="none" stroke-linecap="round"/><path d="M308,171.52499999999998 C308,179.33749999999998 292,179.33749999999998 292,187.14999999999998" stroke="#8a6a15" stroke-width="3.5" fill="none" stroke-linecap="round"/><path d="M292,171.52499999999998 C292,179.33749999999998 308,179.33749999999998 308,187.14999999999998" stroke="#8a6a15" stroke-width="3.5" fill="none" stroke-linecap="round"/><path d="M292,187.14999999999998 C292,194.96249999999998 308,194.96249999999998 308,202.77499999999998" stroke="#8a6a15" stroke-width="3.5" fill="none" stroke-linecap="round"/><path d="M308,187.14999999999998 C308,194.96249999999998 292,194.96249999999998 292,202.77499999999998" stroke="#8a6a15" stroke-width="3.5" fill="none" stroke-linecap="round"/><path d="M308,202.77499999999998 C308,210.58749999999998 292,210.58749999999998 292,218.39999999999998" stroke="#8a6a15" stroke-width="3.5" fill="none" stroke-linecap="round"/><path d="M292,202.77499999999998 C292,210.58749999999998 308,210.58749999999998 308,218.39999999999998" stroke="#8a6a15" stroke-width="3.5" fill="none" stroke-linecap="round"/>
    <path d="M205,223.39999999999998 L395,223.39999999999998 L395,273.4 L370,308.4 L340,328.4 L300,341.4 L260,328.4 L230,308.4 L205,273.4 Z" fill="url(#goldGrad)" stroke="#8a6a15" stroke-width="3" stroke-linejoin="round"/>
    <path d="M222,233.39999999999998 L378,233.39999999999998 L378,267.4 L358,297.4 L334,315.4 L300,326.4 L266,315.4 L242,297.4 L222,267.4 Z" fill="none" stroke="#8a6a15" stroke-width="2"/>
    <path d="M260,241.39999999999998 C260,241.39999999999998 270,273.4 300,303.4 C330,273.4 340,241.39999999999998 340,241.39999999999998" fill="none" stroke="#8a6a15" stroke-width="2.5" stroke-linecap="round"/>
    <path d="M274,247.39999999999998 C274,247.39999999999998 282,271.4 300,289.4 C318,271.4 326,247.39999999999998 326,247.39999999999998" fill="none" stroke="#8a6a15" stroke-width="2.5" stroke-linecap="round"/>
    <path d="M240,237.39999999999998 C232,253.39999999999998 245,261.4 258,251.39999999999998" fill="none" stroke="#8a6a15" stroke-width="2.5" stroke-linecap="round"/>
    <path d="M360,237.39999999999998 C368,253.39999999999998 355,261.4 342,251.39999999999998" fill="none" stroke="#8a6a15" stroke-width="2.5" stroke-linecap="round"/>
    <path d="M225,237.39999999999998 C218,249.39999999999998 228,257.4 238,249.39999999999998" fill="none" stroke="#8a6a15" stroke-width="2" stroke-linecap="round"/>
    <path d="M375,237.39999999999998 C382,249.39999999999998 372,257.4 362,249.39999999999998" fill="none" stroke="#8a6a15" stroke-width="2" stroke-linecap="round"/>
  </g>
</svg>