<?xml version="1.0" encoding="UTF-8"?>
<svg xmlns="http://www.w3.org/2000/svg" viewBox="0 0 600 700" width="600" height="700">
  <defs>
    <linearGradient id="goldGrad" x1="0" y1="0" x2="1" y2="1">
      <stop offset="0%" stop-color="#daa830"/>
      <stop offset="50%" stop-color="#c8922a"/>
      <stop offset="100%" stop-color="#a87818"/>
    </linearGradient>
  </defs>
  <rect width="600" height="700" fill="#ffffff"/>
  <!-- Wreath -->
  <circle cx="300" cy="289.8" r="260" fill="none" stroke="#2d5a27" stroke-width="7"/>
  <circle cx="300" cy="289.8" r="228" fill="none" stroke="#2d5a27" stroke-width="5"/>
  <path d="M300.0,45.8 L307.7,45.4 L315.4,45.3 L323.1,45.5 L330.8,46.2 L338.4,47.4 L345.9,49.0 L353.4,51.0 L360.7,53.3 L368.0,55.8 L375.1,58.6 L382.2,61.4 L389.3,64.3 L396.3,67.2 L403.4,70.2 L410.4,73.2 L417.4,76.3 L424.3,79.6 L431.1,83.2 L437.8,87.0 L444.3,91.2 L450.5,95.8 L456.4,100.7 L462.0,106.0 L467.4,111.5 L472.5,117.3 L477.5,123.1 L482.3,129.1 L487.0,135.1 L491.6,141.2 L496.2,147.2 L500.9,153.3 L505.4,159.4 L509.9,165.7 L514.1,172.1 L518.2,178.6 L521.9,185.4 L525.3,192.3 L528.2,199.4 L530.8,206.7 L532.9,214.1 L534.7,221.6 L536.2,229.2 L537.4,236.7 L538.5,244.3 L539.6,251.9 L540.6,259.4 L541.6,267.0 L542.5,274.5 L543.3,282.2 L544.0,289.8 L544.4,297.5 L544.5,305.2 L544.3,312.9 L543.6,320.6 L542.4,328.2 L540.8,335.7 L538.8,343.2 L536.5,350.5 L534.0,357.8 L531.2,364.9 L528.4,372.0 L525.5,379.1 L522.6,386.1 L519.6,393.2 L516.6,400.2 L513.5,407.2 L510.2,414.1 L506.6,420.9 L502.8,427.6 L498.6,434.1 L494.0,440.3 L489.1,446.2 L483.8,451.8 L478.3,457.2 L472.5,462.3 L466.7,467.3 L460.7,472.1 L454.7,476.8 L448.6,481.4 L442.6,486.0 L436.5,490.7 L430.4,495.2 L424.1,499.7 L417.7,503.9 L411.2,508.0 L404.4,511.7 L397.5,515.1 L390.4,518.0 L383.1,520.6 L375.7,522.7 L368.2,524.5 L360.6,526.0 L353.1,527.2 L345.5,528.3 L337.9,529.4 L330.4,530.4 L322.8,531.4 L315.3,532.3 L307.6,533.1 L300.0,533.8 L292.3,534.2 L284.6,534.3 L276.9,534.1 L269.2,533.4 L261.6,532.2 L254.1,530.6 L246.6,528.6 L239.3,526.3 L232.0,523.8 L224.9,521.0 L217.8,518.2 L210.7,515.3 L203.7,512.4 L196.6,509.4 L189.6,506.4 L182.6,503.3 L175.7,500.0 L168.9,496.4 L162.2,492.6 L155.7,488.4 L149.5,483.8 L143.6,478.9 L138.0,473.6 L132.6,468.1 L127.5,462.3 L122.5,456.5 L117.7,450.5 L113.0,444.5 L108.4,438.4 L103.8,432.4 L99.1,426.3 L94.6,420.2 L90.1,413.9 L85.9,407.5 L81.8,401.0 L78.1,394.2 L74.7,387.3 L71.8,380.2 L69.2,372.9 L67.1,365.5 L65.3,358.0 L63.8,350.4 L62.6,342.9 L61.5,335.3 L60.4,327.7 L59.4,320.2 L58.4,312.6 L57.5,305.1 L56.7,297.4 L56.0,289.8 L55.6,282.1 L55.5,274.4 L55.7,266.7 L56.4,259.0 L57.6,251.4 L59.2,243.9 L61.2,236.4 L63.5,229.1 L66.0,221.8 L68.8,214.7 L71.6,207.6 L74.5,200.5 L77.4,193.5 L80.4,186.4 L83.4,179.4 L86.5,172.4 L89.8,165.5 L93.4,158.7 L97.2,152.0 L101.4,145.5 L106.0,139.3 L110.9,133.4 L116.2,127.8 L121.7,122.4 L127.5,117.3 L133.3,112.3 L139.3,107.5 L145.3,102.8 L151.4,98.2 L157.4,93.6 L163.5,88.9 L169.6,84.4 L175.9,79.9 L182.3,75.7 L188.8,71.6 L195.6,67.9 L202.5,64.5 L209.6,61.6 L216.9,59.0 L224.3,56.9 L231.8,55.1 L239.4,53.6 L246.9,52.4 L254.5,51.3 L262.1,50.2 L269.6,49.2 L277.2,48.2 L284.7,47.3 L292.4,46.5 L300.0,45.8" fill="none" stroke="#2d5a27" stroke-width="3"/>
  <!-- Leaves -->
  <path d="M300.0,39.8 Q295.0,33.4 293.0,25.4 Q301.5,33.4 300.0,39.8" fill="#2d5a27"/><line x1="300.0" y1="39.8" x2="293.0" y2="25.4" stroke="#1e4d1a" stroke-width="0.6" opacity="0.5"/><path d="M300.0,39.8 Q305.0,33.4 307.0,25.4 Q298.5,33.4 300.0,39.8" fill="#2d5a27"/><line x1="300.0" y1="39.8" x2="307.0" y2="25.4" stroke="#1e4d1a" stroke-width="0.6" opacity="0.5"/><path d="M300.0,47.8 Q296.0,43.0 292.3,38.6 Q301.0,43.0 300.0,47.8" fill="#2d5a27"/><path d="M300.0,47.8 Q304.0,43.0 307.7,38.6 Q299.0,43.0 300.0,47.8" fill="#2d5a27"/><path d="M355.6,46.1 Q352.2,38.7 352.1,30.5 Q358.5,40.2 355.6,46.1" fill="#2d5a27"/><line x1="355.6" y1="46.1" x2="352.1" y2="30.5" stroke="#1e4d1a" stroke-width="0.6" opacity="0.5"/><path d="M355.6,46.1 Q361.9,40.9 365.6,33.6 Q355.6,39.5 355.6,46.1" fill="#2d5a27"/><line x1="355.6" y1="46.1" x2="365.6" y2="33.6" stroke="#1e4d1a" stroke-width="0.6" opacity="0.5"/><path d="M353.9,53.9 Q351.0,48.3 348.4,43.2 Q355.9,49.4 353.9,53.9" fill="#2d5a27"/><path d="M353.9,53.9 Q358.8,50.1 363.4,46.6 Q353.9,49.0 353.9,53.9" fill="#2d5a27"/><path d="M408.5,64.6 Q406.7,56.6 408.5,48.6 Q412.6,59.4 408.5,64.6" fill="#2d5a27"/><line x1="408.5" y1="64.6" x2="408.5" y2="48.6" stroke="#1e4d1a" stroke-width="0.6" opacity="0.5"/><path d="M408.5,64.6 Q415.8,61.0 421.0,54.6 Q409.9,58.1 408.5,64.6" fill="#2d5a27"/><line x1="408.5" y1="64.6" x2="421.0" y2="54.6" stroke="#1e4d1a" stroke-width="0.6" opacity="0.5"/><path d="M405.0,71.8 Q403.5,65.7 402.0,60.1 Q408.0,67.9 405.0,71.8" fill="#2d5a27"/><path d="M405.0,71.8 Q410.7,69.2 415.9,66.9 Q406.2,67.0 405.0,71.8" fill="#2d5a27"/><path d="M455.9,94.3 Q456.0,86.2 459.4,78.7 Q461.0,90.3 455.9,94.3" fill="#2d5a27"/><line x1="455.9" y1="94.3" x2="459.4" y2="78.7" stroke="#1e4d1a" stroke-width="0.6" opacity="0.5"/><path d="M455.9,94.3 Q463.8,92.5 470.3,87.4 Q458.7,88.4 455.9,94.3" fill="#2d5a27"/><line x1="455.9" y1="94.3" x2="470.3" y2="87.4" stroke="#1e4d1a" stroke-width="0.6" opacity="0.5"/><path d="M450.9,100.6 Q450.7,94.4 450.6,88.6 Q454.7,97.5 450.9,100.6" fill="#2d5a27"/><path d="M450.9,100.6 Q457.0,99.3 462.7,98.2 Q453.1,96.2 450.9,100.6" fill="#2d5a27"/><path d="M495.5,133.9 Q497.3,126.0 502.4,119.5 Q501.4,131.1 495.5,133.9" fill="#2d5a27"/><line x1="495.5" y1="133.9" x2="502.4" y2="119.5" stroke="#1e4d1a" stroke-width="0.6" opacity="0.5"/><path d="M495.5,133.9 Q503.6,133.8 511.1,130.4 Q499.5,128.8 495.5,133.9" fill="#2d5a27"/><line x1="495.5" y1="133.9" x2="511.1" y2="130.4" stroke="#1e4d1a" stroke-width="0.6" opacity="0.5"/><path d="M489.2,138.9 Q490.5,132.8 491.6,127.1 Q493.6,136.7 489.2,138.9" fill="#2d5a27"/><path d="M489.2,138.9 Q495.4,139.1 501.2,139.2 Q492.3,135.1 489.2,138.9" fill="#2d5a27"/><path d="M525.2,181.3 Q528.8,174.0 535.2,168.8 Q531.7,179.9 525.2,181.3" fill="#2d5a27"/><line x1="525.2" y1="181.3" x2="535.2" y2="168.8" stroke="#1e4d1a" stroke-width="0.6" opacity="0.5"/><path d="M525.2,181.3 Q533.2,183.1 541.2,181.3 Q530.4,177.2 525.2,181.3" fill="#2d5a27"/><line x1="525.2" y1="181.3" x2="541.2" y2="181.3" stroke="#1e4d1a" stroke-width="0.6" opacity="0.5"/><path d="M518.0,184.8 Q520.6,179.1 522.9,173.9 Q522.8,183.6 518.0,184.8" fill="#2d5a27"/><path d="M518.0,184.8 Q524.1,186.3 529.7,187.8 Q521.9,181.8 518.0,184.8" fill="#2d5a27"/><path d="M543.7,234.2 Q548.9,227.9 556.2,224.2 Q550.3,234.2 543.7,234.2" fill="#2d5a27"/><line x1="543.7" y1="234.2" x2="556.2" y2="224.2" stroke="#1e4d1a" stroke-width="0.6" opacity="0.5"/><path d="M543.7,234.2 Q551.1,237.6 559.3,237.7 Q549.6,231.3 543.7,234.2" fill="#2d5a27"/><line x1="543.7" y1="234.2" x2="559.3" y2="237.7" stroke="#1e4d1a" stroke-width="0.6" opacity="0.5"/><path d="M535.9,235.9 Q539.7,231.0 543.2,226.4 Q540.8,235.9 535.9,235.9" fill="#2d5a27"/><path d="M535.9,235.9 Q541.5,238.8 546.6,241.4 Q540.4,233.9 535.9,235.9" fill="#2d5a27"/><path d="M550.0,289.8 Q556.4,284.8 564.4,282.8 Q556.4,291.3 550.0,289.8" fill="#2d5a27"/><line x1="550.0" y1="289.8" x2="564.4" y2="282.8" stroke="#1e4d1a" stroke-width="0.6" opacity="0.5"/><path d="M550.0,289.8 Q556.4,294.8 564.4,296.8 Q556.4,288.3 550.0,289.8" fill="#2d5a27"/><line x1="550.0" y1="289.8" x2="564.4" y2="296.8" stroke="#1e4d1a" stroke-width="0.6" opacity="0.5"/><path d="M542.0,289.8 Q546.8,285.8 551.2,282.1 Q546.8,290.8 542.0,289.8" fill="#2d5a27"/><path d="M542.0,289.8 Q546.8,293.8 551.2,297.5 Q546.8,288.8 542.0,289.8" fill="#2d5a27"/><path d="M543.7,345.4 Q551.1,342.0 559.3,341.9 Q549.6,348.3 543.7,345.4" fill="#2d5a27"/><line x1="543.7" y1="345.4" x2="559.3" y2="341.9" stroke="#1e4d1a" stroke-width="0.6" opacity="0.5"/><path d="M543.7,345.4 Q548.9,351.7 556.2,355.4 Q550.3,345.4 543.7,345.4" fill="#2d5a27"/><line x1="543.7" y1="345.4" x2="556.2" y2="355.4" stroke="#1e4d1a" stroke-width="0.6" opacity="0.5"/><path d="M535.9,343.7 Q541.5,340.8 546.6,338.2 Q540.4,345.7 535.9,343.7" fill="#2d5a27"/><path d="M535.9,343.7 Q539.7,348.6 543.2,353.2 Q540.8,343.7 535.9,343.7" fill="#2d5a27"/><path d="M525.2,398.3 Q533.2,396.5 541.2,398.3 Q530.4,402.4 525.2,398.3" fill="#2d5a27"/><line x1="525.2" y1="398.3" x2="541.2" y2="398.3" stroke="#1e4d1a" stroke-width="0.6" opacity="0.5"/><path d="M525.2,398.3 Q528.8,405.6 535.2,410.8 Q531.7,399.7 525.2,398.3" fill="#2d5a27"/><line x1="525.2" y1="398.3" x2="535.2" y2="410.8" stroke="#1e4d1a" stroke-width="0.6" opacity="0.5"/><path d="M518.0,394.8 Q524.1,393.3 529.7,391.8 Q521.9,397.8 518.0,394.8" fill="#2d5a27"/><path d="M518.0,394.8 Q520.6,400.5 522.9,405.7 Q522.8,396.0 518.0,394.8" fill="#2d5a27"/><path d="M495.5,445.7 Q503.6,445.8 511.1,449.2 Q499.5,450.8 495.5,445.7" fill="#2d5a27"/><line x1="495.5" y1="445.7" x2="511.1" y2="449.2" stroke="#1e4d1a" stroke-width="0.6" opacity="0.5"/><path d="M495.5,445.7 Q497.3,453.6 502.4,460.1 Q501.4,448.5 495.5,445.7" fill="#2d5a27"/><line x1="495.5" y1="445.7" x2="502.4" y2="460.1" stroke="#1e4d1a" stroke-width="0.6" opacity="0.5"/><path d="M489.2,440.7 Q495.4,440.5 501.2,440.4 Q492.3,444.5 489.2,440.7" fill="#2d5a27"/><path d="M489.2,440.7 Q490.5,446.8 491.6,452.5 Q493.6,442.9 489.2,440.7" fill="#2d5a27"/><path d="M455.9,485.3 Q463.8,487.1 470.3,492.2 Q458.7,491.2 455.9,485.3" fill="#2d5a27"/><line x1="455.9" y1="485.3" x2="470.3" y2="492.2" stroke="#1e4d1a" stroke-width="0.6" opacity="0.5"/><path d="M455.9,485.3 Q456.0,493.4 459.4,500.9 Q461.0,489.3 455.9,485.3" fill="#2d5a27"/><line x1="455.9" y1="485.3" x2="459.4" y2="500.9" stroke="#1e4d1a" stroke-width="0.6" opacity="0.5"/><path d="M450.9,479.0 Q457.0,480.3 462.7,481.4 Q453.1,483.4 450.9,479.0" fill="#2d5a27"/><path d="M450.9,479.0 Q450.7,485.2 450.6,491.0 Q454.7,482.1 450.9,479.0" fill="#2d5a27"/><path d="M408.5,515.0 Q415.8,518.6 421.0,525.0 Q409.9,521.5 408.5,515.0" fill="#2d5a27"/><line x1="408.5" y1="515.0" x2="421.0" y2="525.0" stroke="#1e4d1a" stroke-width="0.6" opacity="0.5"/><path d="M408.5,515.0 Q406.7,523.0 408.5,531.0 Q412.6,520.2 408.5,515.0" fill="#2d5a27"/><line x1="408.5" y1="515.0" x2="408.5" y2="531.0" stroke="#1e4d1a" stroke-width="0.6" opacity="0.5"/><path d="M405.0,507.8 Q410.7,510.4 415.9,512.7 Q406.2,512.6 405.0,507.8" fill="#2d5a27"/><path d="M405.0,507.8 Q403.5,513.9 402.0,519.5 Q408.0,511.7 405.0,507.8" fill="#2d5a27"/><path d="M355.6,533.5 Q361.9,538.7 365.6,546.0 Q355.6,540.1 355.6,533.5" fill="#2d5a27"/><line x1="355.6" y1="533.5" x2="365.6" y2="546.0" stroke="#1e4d1a" stroke-width="0.6" opacity="0.5"/><path d="M355.6,533.5 Q352.2,540.9 352.1,549.1 Q358.5,539.4 355.6,533.5" fill="#2d5a27"/><line x1="355.6" y1="533.5" x2="352.1" y2="549.1" stroke="#1e4d1a" stroke-width="0.6" opacity="0.5"/><path d="M353.9,525.7 Q358.8,529.5 363.4,533.0 Q353.9,530.6 353.9,525.7" fill="#2d5a27"/><path d="M353.9,525.7 Q351.0,531.3 348.4,536.4 Q355.9,530.2 353.9,525.7" fill="#2d5a27"/><path d="M300.0,539.8 Q305.0,546.2 307.0,554.2 Q298.5,546.2 300.0,539.8" fill="#2d5a27"/><line x1="300.0" y1="539.8" x2="307.0" y2="554.2" stroke="#1e4d1a" stroke-width="0.6" opacity="0.5"/><path d="M300.0,539.8 Q295.0,546.2 293.0,554.2 Q301.5,546.2 300.0,539.8" fill="#2d5a27"/><line x1="300.0" y1="539.8" x2="293.0" y2="554.2" stroke="#1e4d1a" stroke-width="0.6" opacity="0.5"/><path d="M300.0,531.8 Q304.0,536.6 307.7,541.0 Q299.0,536.6 300.0,531.8" fill="#2d5a27"/><path d="M300.0,531.8 Q296.0,536.6 292.3,541.0 Q301.0,536.6 300.0,531.8" fill="#2d5a27"/><path d="M244.4,533.5 Q247.8,540.9 247.9,549.1 Q241.5,539.4 244.4,533.5" fill="#2d5a27"/><line x1="244.4" y1="533.5" x2="247.9" y2="549.1" stroke="#1e4d1a" stroke-width="0.6" opacity="0.5"/><path d="M244.4,533.5 Q238.1,538.7 234.4,546.0 Q244.4,540.1 244.4,533.5" fill="#2d5a27"/><line x1="244.4" y1="533.5" x2="234.4" y2="546.0" stroke="#1e4d1a" stroke-width="0.6" opacity="0.5"/><path d="M246.1,525.7 Q249.0,531.3 251.6,536.4 Q244.1,530.2 246.1,525.7" fill="#2d5a27"/><path d="M246.1,525.7 Q241.2,529.5 236.6,533.0 Q246.1,530.6 246.1,525.7" fill="#2d5a27"/><path d="M191.5,515.0 Q193.3,523.0 191.5,531.0 Q187.4,520.2 191.5,515.0" fill="#2d5a27"/><line x1="191.5" y1="515.0" x2="191.5" y2="531.0" stroke="#1e4d1a" stroke-width="0.6" opacity="0.5"/><path d="M191.5,515.0 Q184.2,518.6 179.0,525.0 Q190.1,521.5 191.5,515.0" fill="#2d5a27"/><line x1="191.5" y1="515.0" x2="179.0" y2="525.0" stroke="#1e4d1a" stroke-width="0.6" opacity="0.5"/><path d="M195.0,507.8 Q196.5,513.9 198.0,519.5 Q192.0,511.7 195.0,507.8" fill="#2d5a27"/><path d="M195.0,507.8 Q189.3,510.4 184.1,512.7 Q193.8,512.6 195.0,507.8" fill="#2d5a27"/><path d="M144.1,485.3 Q144.0,493.4 140.6,500.9 Q139.0,489.3 144.1,485.3" fill="#2d5a27"/><line x1="144.1" y1="485.3" x2="140.6" y2="500.9" stroke="#1e4d1a" stroke-width="0.6" opacity="0.5"/><path d="M144.1,485.3 Q136.2,487.1 129.7,492.2 Q141.3,491.2 144.1,485.3" fill="#2d5a27"/><line x1="144.1" y1="485.3" x2="129.7" y2="492.2" stroke="#1e4d1a" stroke-width="0.6" opacity="0.5"/><path d="M149.1,479.0 Q149.3,485.2 149.4,491.0 Q145.3,482.1 149.1,479.0" fill="#2d5a27"/><path d="M149.1,479.0 Q143.0,480.3 137.3,481.4 Q146.9,483.4 149.1,479.0" fill="#2d5a27"/><path d="M104.5,445.7 Q102.7,453.6 97.6,460.1 Q98.6,448.5 104.5,445.7" fill="#2d5a27"/><line x1="104.5" y1="445.7" x2="97.6" y2="460.1" stroke="#1e4d1a" stroke-width="0.6" opacity="0.5"/><path d="M104.5,445.7 Q96.4,445.8 88.9,449.2 Q100.5,450.8 104.5,445.7" fill="#2d5a27"/><line x1="104.5" y1="445.7" x2="88.9" y2="449.2" stroke="#1e4d1a" stroke-width="0.6" opacity="0.5"/><path d="M110.8,440.7 Q109.5,446.8 108.4,452.5 Q106.4,442.9 110.8,440.7" fill="#2d5a27"/><path d="M110.8,440.7 Q104.6,440.5 98.8,440.4 Q107.7,444.5 110.8,440.7" fill="#2d5a27"/><path d="M74.8,398.3 Q71.2,405.6 64.8,410.8 Q68.3,399.7 74.8,398.3" fill="#2d5a27"/><line x1="74.8" y1="398.3" x2="64.8" y2="410.8" stroke="#1e4d1a" stroke-width="0.6" opacity="0.5"/><path d="M74.8,398.3 Q66.8,396.5 58.8,398.3 Q69.6,402.4 74.8,398.3" fill="#2d5a27"/><line x1="74.8" y1="398.3" x2="58.8" y2="398.3" stroke="#1e4d1a" stroke-width="0.6" opacity="0.5"/><path d="M82.0,394.8 Q79.4,400.5 77.1,405.7 Q77.2,396.0 82.0,394.8" fill="#2d5a27"/><path d="M82.0,394.8 Q75.9,393.3 70.3,391.8 Q78.1,397.8 82.0,394.8" fill="#2d5a27"/><path d="M56.3,345.4 Q51.1,351.7 43.8,355.4 Q49.7,345.4 56.3,345.4" fill="#2d5a27"/><line x1="56.3" y1="345.4" x2="43.8" y2="355.4" stroke="#1e4d1a" stroke-width="0.6" opacity="0.5"/><path d="M56.3,345.4 Q48.9,342.0 40.7,341.9 Q50.4,348.3 56.3,345.4" fill="#2d5a27"/><line x1="56.3" y1="345.4" x2="40.7" y2="341.9" stroke="#1e4d1a" stroke-width="0.6" opacity="0.5"/><path d="M64.1,343.7 Q60.3,348.6 56.8,353.2 Q59.2,343.7 64.1,343.7" fill="#2d5a27"/><path d="M64.1,343.7 Q58.5,340.8 53.4,338.2 Q59.6,345.7 64.1,343.7" fill="#2d5a27"/><path d="M50.0,289.8 Q43.6,294.8 35.6,296.8 Q43.6,288.3 50.0,289.8" fill="#2d5a27"/><line x1="50.0" y1="289.8" x2="35.6" y2="296.8" stroke="#1e4d1a" stroke-width="0.6" opacity="0.5"/><path d="M50.0,289.8 Q43.6,284.8 35.6,282.8 Q43.6,291.3 50.0,289.8" fill="#2d5a27"/><line x1="50.0" y1="289.8" x2="35.6" y2="282.8" stroke="#1e4d1a" stroke-width="0.6" opacity="0.5"/><path d="M58.0,289.8 Q53.2,293.8 48.8,297.5 Q53.2,288.8 58.0,289.8" fill="#2d5a27"/><path d="M58.0,289.8 Q53.2,285.8 48.8,282.1 Q53.2,290.8 58.0,289.8" fill="#2d5a27"/><path d="M56.3,234.2 Q48.9,237.6 40.7,237.7 Q50.4,231.3 56.3,234.2" fill="#2d5a27"/><line x1="56.3" y1="234.2" x2="40.7" y2="237.7" stroke="#1e4d1a" stroke-width="0.6" opacity="0.5"/><path d="M56.3,234.2 Q51.1,227.9 43.8,224.2 Q49.7,234.2 56.3,234.2" fill="#2d5a27"/><line x1="56.3" y1="234.2" x2="43.8" y2="224.2" stroke="#1e4d1a" stroke-width="0.6" opacity="0.5"/><path d="M64.1,235.9 Q58.5,238.8 53.4,241.4 Q59.6,233.9 64.1,235.9" fill="#2d5a27"/><path d="M64.1,235.9 Q60.3,231.0 56.8,226.4 Q59.2,235.9 64.1,235.9" fill="#2d5a27"/><path d="M74.8,181.3 Q66.8,183.1 58.8,181.3 Q69.6,177.2 74.8,181.3" fill="#2d5a27"/><line x1="74.8" y1="181.3" x2="58.8" y2="181.3" stroke="#1e4d1a" stroke-width="0.6" opacity="0.5"/><path d="M74.8,181.3 Q71.2,174.0 64.8,168.8 Q68.3,179.9 74.8,181.3" fill="#2d5a27"/><line x1="74.8" y1="181.3" x2="64.8" y2="168.8" stroke="#1e4d1a" stroke-width="0.6" opacity="0.5"/><path d="M82.0,184.8 Q75.9,186.3 70.3,187.8 Q78.1,181.8 82.0,184.8" fill="#2d5a27"/><path d="M82.0,184.8 Q79.4,179.1 77.1,173.9 Q77.2,183.6 82.0,184.8" fill="#2d5a27"/><path d="M104.5,133.9 Q96.4,133.8 88.9,130.4 Q100.5,128.8 104.5,133.9" fill="#2d5a27"/><line x1="104.5" y1="133.9" x2="88.9" y2="130.4" stroke="#1e4d1a" stroke-width="0.6" opacity="0.5"/><path d="M104.5,133.9 Q102.7,126.0 97.6,119.5 Q98.6,131.1 104.5,133.9" fill="#2d5a27"/><line x1="104.5" y1="133.9" x2="97.6" y2="119.5" stroke="#1e4d1a" stroke-width="0.6" opacity="0.5"/><path d="M110.8,138.9 Q104.6,139.1 98.8,139.2 Q107.7,135.1 110.8,138.9" fill="#2d5a27"/><path d="M110.8,138.9 Q109.5,132.8 108.4,127.1 Q106.4,136.7 110.8,138.9" fill="#2d5a27"/><path d="M144.1,94.3 Q136.2,92.5 129.7,87.4 Q141.3,88.4 144.1,94.3" fill="#2d5a27"/><line x1="144.1" y1="94.3" x2="129.7" y2="87.4" stroke="#1e4d1a" stroke-width="0.6" opacity="0.5"/><path d="M144.1,94.3 Q144.0,86.2 140.6,78.7 Q139.0,90.3 144.1,94.3" fill="#2d5a27"/><line x1="144.1" y1="94.3" x2="140.6" y2="78.7" stroke="#1e4d1a" stroke-width="0.6" opacity="0.5"/><path d="M149.1,100.6 Q143.0,99.3 137.3,98.2 Q146.9,96.2 149.1,100.6" fill="#2d5a27"/><path d="M149.1,100.6 Q149.3,94.4 149.4,88.6 Q145.3,97.5 149.1,100.6" fill="#2d5a27"/><path d="M191.5,64.6 Q184.2,61.0 179.0,54.6 Q190.1,58.1 191.5,64.6" fill="#2d5a27"/><line x1="191.5" y1="64.6" x2="179.0" y2="54.6" stroke="#1e4d1a" stroke-width="0.6" opacity="0.5"/><path d="M191.5,64.6 Q193.3,56.6 191.5,48.6 Q187.4,59.4 191.5,64.6" fill="#2d5a27"/><line x1="191.5" y1="64.6" x2="191.5" y2="48.6" stroke="#1e4d1a" stroke-width="0.6" opacity="0.5"/><path d="M195.0,71.8 Q189.3,69.2 184.1,66.9 Q193.8,67.0 195.0,71.8" fill="#2d5a27"/><path d="M195.0,71.8 Q196.5,65.7 198.0,60.1 Q192.0,67.9 195.0,71.8" fill="#2d5a27"/><path d="M244.4,46.1 Q238.1,40.9 234.4,33.6 Q244.4,39.5 244.4,46.1" fill="#2d5a27"/><line x1="244.4" y1="46.1" x2="234.4" y2="33.6" stroke="#1e4d1a" stroke-width="0.6" opacity="0.5"/><path d="M244.4,46.1 Q247.8,38.7 247.9,30.5 Q241.5,40.2 244.4,46.1" fill="#2d5a27"/><line x1="244.4" y1="46.1" x2="247.9" y2="30.5" stroke="#1e4d1a" stroke-width="0.6" opacity="0.5"/><path d="M246.1,53.9 Q241.2,50.1 236.6,46.6 Q246.1,49.0 246.1,53.9" fill="#2d5a27"/><path d="M246.1,53.9 Q249.0,48.3 251.6,43.2 Q244.1,49.4 246.1,53.9" fill="#2d5a27"/><line x1="326.0" y1="59.3" x2="328.7" y2="35.4" stroke="#3a6b34" stroke-width="1" opacity="0.4"/><line x1="376.6" y1="70.8" x2="384.6" y2="48.2" stroke="#3a6b34" stroke-width="1" opacity="0.4"/><line x1="423.4" y1="93.4" x2="436.2" y2="73.0" stroke="#3a6b34" stroke-width="1" opacity="0.4"/><line x1="464.0" y1="125.8" x2="481.0" y2="108.8" stroke="#3a6b34" stroke-width="1" opacity="0.4"/><line x1="496.4" y1="166.4" x2="516.8" y2="153.6" stroke="#3a6b34" stroke-width="1" opacity="0.4"/><line x1="519.0" y1="213.2" x2="541.6" y2="205.2" stroke="#3a6b34" stroke-width="1" opacity="0.4"/><line x1="530.5" y1="263.8" x2="554.4" y2="261.1" stroke="#3a6b34" stroke-width="1" opacity="0.4"/><line x1="530.5" y1="315.8" x2="554.4" y2="318.5" stroke="#3a6b34" stroke-width="1" opacity="0.4"/><line x1="519.0" y1="366.4" x2="541.6" y2="374.4" stroke="#3a6b34" stroke-width="1" opacity="0.4"/><line x1="496.4" y1="413.2" x2="516.8" y2="426.0" stroke="#3a6b34" stroke-width="1" opacity="0.4"/><line x1="464.0" y1="453.8" x2="481.0" y2="470.8" stroke="#3a6b34" stroke-width="1" opacity="0.4"/><line x1="423.4" y1="486.2" x2="436.2" y2="506.6" stroke="#3a6b34" stroke-width="1" opacity="0.4"/><line x1="376.6" y1="508.8" x2="384.6" y2="531.4" stroke="#3a6b34" stroke-width="1" opacity="0.4"/><line x1="326.0" y1="520.3" x2="328.7" y2="544.2" stroke="#3a6b34" stroke-width="1" opacity="0.4"/><line x1="274.0" y1="520.3" x2="271.3" y2="544.2" stroke="#3a6b34" stroke-width="1" opacity="0.4"/><line x1="223.4" y1="508.8" x2="215.4" y2="531.4" stroke="#3a6b34" stroke-width="1" opacity="0.4"/><line x1="176.6" y1="486.2" x2="163.8" y2="506.6" stroke="#3a6b34" stroke-width="1" opacity="0.4"/><line x1="136.0" y1="453.8" x2="119.0" y2="470.8" stroke="#3a6b34" stroke-width="1" opacity="0.4"/><line x1="103.6" y1="413.2" x2="83.2" y2="426.0" stroke="#3a6b34" stroke-width="1" opacity="0.4"/><line x1="81.0" y1="366.4" x2="58.4" y2="374.4" stroke="#3a6b34" stroke-width="1" opacity="0.4"/><line x1="69.5" y1="315.8" x2="45.6" y2="318.5" stroke="#3a6b34" stroke-width="1" opacity="0.4"/><line x1="69.5" y1="263.8" x2="45.6" y2="261.1" stroke="#3a6b34" stroke-width="1" opacity="0.4"/><line x1="81.0" y1="213.2" x2="58.4" y2="205.2" stroke="#3a6b34" stroke-width="1" opacity="0.4"/><line x1="103.6" y1="166.4" x2="83.2" y2="153.6" stroke="#3a6b34" stroke-width="1" opacity="0.4"/><line x1="136.0" y1="125.8" x2="119.0" y2="108.8" stroke="#3a6b34" stroke-width="1" opacity="0.4"/><line x1="176.6" y1="93.4" x2="163.8" y2="73.0" stroke="#3a6b34" stroke-width="1" opacity="0.4"/><line x1="223.4" y1="70.8" x2="215.4" y2="48.2" stroke="#3a6b34" stroke-width="1" opacity="0.4"/><line x1="274.0" y1="59.3" x2="271.3" y2="35.4" stroke="#3a6b34" stroke-width="1" opacity="0.4"/>
  <!-- House Shield -->
  <path d="M300,79.80000000000001 L460,197.8 L460,419.8 L140,419.8 L140,197.8 Z" fill="#1e4d1a" stroke="#2d5a27" stroke-width="5"/>
  <path d="M300,101.80000000000001 L442,207.8 L442,401.8 L158,401.8 L158,207.8 Z" fill="none" stroke="#2d5a27" stroke-width="2.5"/>
  <!-- Mjolnir -->
  <g>
    <rect x="278" y="99.80000000000001" width="44" height="26" rx="5" fill="url(#goldGrad)" stroke="#8a6a15" stroke-width="2.5"/>
    <path d="M300,92.80000000000001 L310,112.80000000000001 L300,119.80000000000001 L290,112.80000000000001 Z" fill="#daa830" stroke="#8a6a15" stroke-width="2"/>
    <rect x="286" y="124.80000000000001" width="28" height="140" rx="4" fill="url(#goldGrad)" stroke="#8a6a15" stroke-width="2.5"/>
    <!-- Celtic Knotwork -->
    <path d="M292,134.8 C292,142.6125 308,142.6125 308,150.425" stroke="#8a6a15" stroke-width="3.5" fill="none" stroke-linecap="round"/><path d="M308,134.8 C308,142.6125 292,142.6125 292,150.425" stroke="#8a6a15" stroke-width="3.5" fill="none" stroke-linecap="round"/><path d="M308,150.425 C308,158.2375 292,158.2375 292,166.05" stroke="#8a6a15" stroke-width="3.5" fill="none" stroke-linecap="round"/><path d="M292,150.425 C292,158.2375 308,158.2375 308,166.05" stroke="#8a6a15" stroke-width="3.5" fill="none" stroke-linecap="round"/><path d="M292,166.05 C292,173.8625 308,173.8625 308,181.675" stroke="#8a6a15" stroke-width="3.5" fill="none" stroke-linecap="round"/><path d="M308,166.05 C308,173.8625 292,173.8625 292,181.675" stroke="#8a6a15" stroke-width="3.5" fill="none" stroke-linecap="round"/><path d="M308,181.675 C308,189.4875 292,189.4875 292,197.3" stroke="#8a6a15" stroke-width="3.5" fill="none" stroke-linecap="round"/><path d="M292,181.675 C292,189.4875 308,189.4875 308,197.3" stroke="#8a6a15" stroke-width="3.5" fill="none" stroke-linecap="round"/><path d="M292,197.3 C292,205.1125 308,205.1125 308,212.925" stroke="#8a6a15" stroke-width="3.5" fill="none" stroke-linecap="round"/><path d="M308,197.3 C308,205.1125 292,205.1125 292,212.925" stroke="#8a6a15" stroke-width="3.5" fill="none" stroke-linecap="round"/><path d="M308,212.925 C308,220.7375 292,220.7375 292,228.55" stroke="#8a6a15" stroke-width="3.5" fill="none" stroke-linecap="round"/><path d="M292,212.925 C292,220.7375 308,220.7375 308,228.55" stroke="#8a6a15" stroke-width="3.5" fill="none" stroke-linecap="round"/><path d="M292,228.55 C292,236.3625 308,236.3625 308,244.175" stroke="#8a6a15" stroke-width="3.5" fill="none" stroke-linecap="round"/><path d="M308,228.55 C308,236.3625 292,236.3625 292,244.175" stroke="#8a6a15" stroke-width="3.5" fill="none" stroke-linecap="round"/><path d="M308,244.175 C308,251.9875 292,251.9875 292,259.8" stroke="#8a6a15" stroke-width="3.5" fill="none" stroke-linecap="round"/><path d="M292,244.175 C292,251.9875 308,251.9875 308,259.8" stroke="#8a6a15" stroke-width="3.5" fill="none" stroke-linecap="round"/>
    <path d="M205,264.8 L395,264.8 L395,314.8 L370,349.8 L340,369.8 L300,382.8 L260,369.8 L230,349.8 L205,314.8 Z" fill="url(#goldGrad)" stroke="#8a6a15" stroke-width="3" stroke-linejoin="round"/>
    <path d="M222,274.8 L378,274.8 L378,308.8 L358,338.8 L334,356.8 L300,367.8 L266,356.8 L242,338.8 L222,308.8 Z" fill="none" stroke="#8a6a15" stroke-width="2"/>
    <path d="M260,282.8 C260,282.8 270,314.8 300,344.8 C330,314.8 340,282.8 340,282.8" fill="none" stroke="#8a6a15" stroke-width="2.5" stroke-linecap="round"/>
    <path d="M274,288.8 C274,288.8 282,312.8 300,330.8 C318,312.8 326,288.8 326,288.8" fill="none" stroke="#8a6a15" stroke-width="2.5" stroke-linecap="round"/>
    <path d="M240,278.8 C232,294.8 245,302.8 258,292.8" fill="none" stroke="#8a6a15" stroke-width="2.5" stroke-linecap="round"/>
    <path d="M360,278.8 C368,294.8 355,302.8 342,292.8" fill="none" stroke="#8a6a15" stroke-width="2.5" stroke-linecap="round"/>
    <path d="M225,278.8 C218,290.8 228,298.8 238,290.8" fill="none" stroke="#8a6a15" stroke-width="2" stroke-linecap="round"/>
    <path d="M375,278.8 C382,290.8 372,298.8 362,290.8" fill="none" stroke="#8a6a15" stroke-width="2" stroke-linecap="round"/>
  </g>
  <!-- SLIM Text -->
  <text x="300" y="648" font-family="Georgia, 'Times New Roman', serif" font-size="92" font-weight="bold" fill="#1e4d1a" text-anchor="middle" letter-spacing="16">SLIM</text>
</svg>